<mxfile host="app.diagrams.net" modified="2023-11-21T04:25:53.388Z" agent="Mozilla/5.0 (Macintosh; Intel Mac OS X 10_15_7) AppleWebKit/537.36 (KHTML, like Gecko) Chrome/119.0.0.0 Safari/537.36" etag="rLBUMHMwj0k5lIjrERSa" version="22.1.3" type="github">
  <diagram name="第 1 页" id="WC5DyDNceSLa22YwfAu6">
    <mxGraphModel dx="1590" dy="1017" grid="1" gridSize="10" guides="1" tooltips="1" connect="1" arrows="1" fold="1" page="1" pageScale="1" pageWidth="827" pageHeight="1169" math="0" shadow="0">
      <root>
        <mxCell id="0" />
        <mxCell id="1" parent="0" />
        <mxCell id="tPjTmyyNhbe7xi5pCjgy-21" style="rounded=0;orthogonalLoop=1;jettySize=auto;html=1;exitX=1;exitY=0.3333333333333333;exitDx=0;exitDy=0;exitPerimeter=0;endArrow=none;endFill=0;" parent="1" source="tPjTmyyNhbe7xi5pCjgy-1" target="tPjTmyyNhbe7xi5pCjgy-10" edge="1">
          <mxGeometry relative="1" as="geometry" />
        </mxCell>
        <mxCell id="tPjTmyyNhbe7xi5pCjgy-22" style="rounded=0;orthogonalLoop=1;jettySize=auto;html=1;exitX=0.75;exitY=0.1;exitDx=0;exitDy=0;exitPerimeter=0;entryX=0;entryY=0.5;entryDx=0;entryDy=0;endArrow=none;endFill=0;" parent="1" source="tPjTmyyNhbe7xi5pCjgy-1" target="tPjTmyyNhbe7xi5pCjgy-7" edge="1">
          <mxGeometry relative="1" as="geometry" />
        </mxCell>
        <mxCell id="tPjTmyyNhbe7xi5pCjgy-23" style="rounded=0;orthogonalLoop=1;jettySize=auto;html=1;exitX=0.5;exitY=0.5;exitDx=0;exitDy=0;exitPerimeter=0;entryX=0;entryY=0.5;entryDx=0;entryDy=0;endArrow=none;endFill=0;" parent="1" source="tPjTmyyNhbe7xi5pCjgy-1" target="tPjTmyyNhbe7xi5pCjgy-8" edge="1">
          <mxGeometry relative="1" as="geometry" />
        </mxCell>
        <mxCell id="tPjTmyyNhbe7xi5pCjgy-1" value="User" style="shape=umlActor;verticalLabelPosition=bottom;verticalAlign=top;html=1;outlineConnect=0;" parent="1" vertex="1">
          <mxGeometry x="30" y="460" width="60" height="130" as="geometry" />
        </mxCell>
        <mxCell id="tPjTmyyNhbe7xi5pCjgy-4" value="Patient&lt;br&gt;" style="shape=umlActor;verticalLabelPosition=bottom;verticalAlign=top;html=1;outlineConnect=0;" parent="1" vertex="1">
          <mxGeometry x="20" y="770" width="60" height="110" as="geometry" />
        </mxCell>
        <mxCell id="tPjTmyyNhbe7xi5pCjgy-6" value="" style="rounded=0;whiteSpace=wrap;html=1;fillColor=none;" parent="1" vertex="1">
          <mxGeometry x="150" y="55" width="550" height="940" as="geometry" />
        </mxCell>
        <mxCell id="tPjTmyyNhbe7xi5pCjgy-7" value="Turn On device" style="ellipse;whiteSpace=wrap;html=1;fillColor=#007FFF;" parent="1" vertex="1">
          <mxGeometry x="170" y="90" width="120" height="40" as="geometry" />
        </mxCell>
        <mxCell id="tPjTmyyNhbe7xi5pCjgy-8" value="Turn off" style="ellipse;whiteSpace=wrap;html=1;fillColor=#007FFF;" parent="1" vertex="1">
          <mxGeometry x="174" y="870" width="120" height="40" as="geometry" />
        </mxCell>
        <mxCell id="tPjTmyyNhbe7xi5pCjgy-26" style="rounded=0;orthogonalLoop=1;jettySize=auto;html=1;exitX=0;exitY=0.5;exitDx=0;exitDy=0;" parent="1" source="tPjTmyyNhbe7xi5pCjgy-9" target="tPjTmyyNhbe7xi5pCjgy-10" edge="1">
          <mxGeometry relative="1" as="geometry" />
        </mxCell>
        <mxCell id="tPjTmyyNhbe7xi5pCjgy-9" value="place pad" style="ellipse;whiteSpace=wrap;html=1;fillColor=#007FFF;" parent="1" vertex="1">
          <mxGeometry x="230" y="230" width="120" height="50" as="geometry" />
        </mxCell>
        <mxCell id="tPjTmyyNhbe7xi5pCjgy-10" value="Follow instructions" style="ellipse;whiteSpace=wrap;html=1;fillColor=#007FFF;" parent="1" vertex="1">
          <mxGeometry x="140" y="340" width="120" height="50" as="geometry" />
        </mxCell>
        <mxCell id="tPjTmyyNhbe7xi5pCjgy-24" style="rounded=0;orthogonalLoop=1;jettySize=auto;html=1;exitX=0.5;exitY=1;exitDx=0;exitDy=0;entryX=1;entryY=0;entryDx=0;entryDy=0;" parent="1" source="tPjTmyyNhbe7xi5pCjgy-12" target="tPjTmyyNhbe7xi5pCjgy-10" edge="1">
          <mxGeometry relative="1" as="geometry" />
        </mxCell>
        <mxCell id="tPjTmyyNhbe7xi5pCjgy-12" value="check patient" style="ellipse;whiteSpace=wrap;html=1;fillColor=#007FFF;" parent="1" vertex="1">
          <mxGeometry x="260" y="290" width="120" height="50" as="geometry" />
        </mxCell>
        <mxCell id="tPjTmyyNhbe7xi5pCjgy-25" style="rounded=0;orthogonalLoop=1;jettySize=auto;html=1;exitX=0;exitY=1;exitDx=0;exitDy=0;" parent="1" source="tPjTmyyNhbe7xi5pCjgy-13" target="tPjTmyyNhbe7xi5pCjgy-10" edge="1">
          <mxGeometry relative="1" as="geometry" />
        </mxCell>
        <mxCell id="tPjTmyyNhbe7xi5pCjgy-13" value="call help" style="ellipse;whiteSpace=wrap;html=1;fillColor=#007FFF;" parent="1" vertex="1">
          <mxGeometry x="174" y="150" width="120" height="50" as="geometry" />
        </mxCell>
        <mxCell id="tPjTmyyNhbe7xi5pCjgy-28" style="rounded=0;orthogonalLoop=1;jettySize=auto;html=1;exitX=0.25;exitY=0.1;exitDx=0;exitDy=0;exitPerimeter=0;entryX=1;entryY=0;entryDx=0;entryDy=0;endArrow=none;endFill=0;" parent="1" source="tPjTmyyNhbe7xi5pCjgy-14" target="tPjTmyyNhbe7xi5pCjgy-16" edge="1">
          <mxGeometry relative="1" as="geometry" />
        </mxCell>
        <mxCell id="tPjTmyyNhbe7xi5pCjgy-29" style="rounded=0;orthogonalLoop=1;jettySize=auto;html=1;exitX=0.5;exitY=0.5;exitDx=0;exitDy=0;exitPerimeter=0;endArrow=none;endFill=0;" parent="1" source="tPjTmyyNhbe7xi5pCjgy-14" target="tPjTmyyNhbe7xi5pCjgy-15" edge="1">
          <mxGeometry relative="1" as="geometry" />
        </mxCell>
        <mxCell id="tPjTmyyNhbe7xi5pCjgy-33" style="rounded=0;orthogonalLoop=1;jettySize=auto;html=1;exitX=0;exitY=1;exitDx=0;exitDy=0;exitPerimeter=0;endArrow=none;endFill=0;" parent="1" source="tPjTmyyNhbe7xi5pCjgy-14" target="tPjTmyyNhbe7xi5pCjgy-18" edge="1">
          <mxGeometry relative="1" as="geometry" />
        </mxCell>
        <mxCell id="tPjTmyyNhbe7xi5pCjgy-14" value="AED controlor" style="shape=umlActor;verticalLabelPosition=bottom;verticalAlign=top;html=1;outlineConnect=0;" parent="1" vertex="1">
          <mxGeometry x="725" y="340" width="65" height="130" as="geometry" />
        </mxCell>
        <mxCell id="tPjTmyyNhbe7xi5pCjgy-15" value="Show messages" style="ellipse;whiteSpace=wrap;html=1;fillColor=#007FFF;" parent="1" vertex="1">
          <mxGeometry x="540" y="365" width="120" height="60" as="geometry" />
        </mxCell>
        <mxCell id="tPjTmyyNhbe7xi5pCjgy-16" value="start self test" style="ellipse;whiteSpace=wrap;html=1;fillColor=#007FFF;" parent="1" vertex="1">
          <mxGeometry x="580" y="140" width="120" height="40" as="geometry" />
        </mxCell>
        <mxCell id="tPjTmyyNhbe7xi5pCjgy-27" style="rounded=0;orthogonalLoop=1;jettySize=auto;html=1;exitX=0;exitY=0;exitDx=0;exitDy=0;" parent="1" source="tPjTmyyNhbe7xi5pCjgy-17" target="tPjTmyyNhbe7xi5pCjgy-10" edge="1">
          <mxGeometry relative="1" as="geometry" />
        </mxCell>
        <mxCell id="l38MuskODwzm0i6knBrt-1" style="rounded=0;orthogonalLoop=1;jettySize=auto;html=1;exitX=0;exitY=1;exitDx=0;exitDy=0;endArrow=none;endFill=0;" edge="1" parent="1" source="tPjTmyyNhbe7xi5pCjgy-17" target="tPjTmyyNhbe7xi5pCjgy-4">
          <mxGeometry relative="1" as="geometry" />
        </mxCell>
        <mxCell id="tPjTmyyNhbe7xi5pCjgy-17" value="do CPR" style="ellipse;whiteSpace=wrap;html=1;fillColor=#007FFF;" parent="1" vertex="1">
          <mxGeometry x="150" y="620" width="120" height="50" as="geometry" />
        </mxCell>
        <mxCell id="l38MuskODwzm0i6knBrt-29" style="rounded=0;orthogonalLoop=1;jettySize=auto;html=1;exitX=0.5;exitY=1;exitDx=0;exitDy=0;endArrow=none;endFill=0;" edge="1" parent="1" source="tPjTmyyNhbe7xi5pCjgy-18" target="tPjTmyyNhbe7xi5pCjgy-4">
          <mxGeometry relative="1" as="geometry" />
        </mxCell>
        <mxCell id="tPjTmyyNhbe7xi5pCjgy-18" value="detect rhythm" style="ellipse;whiteSpace=wrap;html=1;fillColor=#007FFF;" parent="1" vertex="1">
          <mxGeometry x="500" y="730" width="120" height="50" as="geometry" />
        </mxCell>
        <mxCell id="tPjTmyyNhbe7xi5pCjgy-20" value="shock" style="ellipse;whiteSpace=wrap;html=1;fillColor=#007FFF;" parent="1" vertex="1">
          <mxGeometry x="540" y="910" width="120" height="40" as="geometry" />
        </mxCell>
        <mxCell id="tPjTmyyNhbe7xi5pCjgy-34" style="rounded=0;orthogonalLoop=1;jettySize=auto;html=1;exitX=1;exitY=1;exitDx=0;exitDy=0;exitPerimeter=0;entryX=0.917;entryY=0.25;entryDx=0;entryDy=0;entryPerimeter=0;endArrow=none;endFill=0;" parent="1" source="tPjTmyyNhbe7xi5pCjgy-14" target="tPjTmyyNhbe7xi5pCjgy-20" edge="1">
          <mxGeometry relative="1" as="geometry" />
        </mxCell>
        <mxCell id="tPjTmyyNhbe7xi5pCjgy-37" style="rounded=0;orthogonalLoop=1;jettySize=auto;html=1;exitX=1;exitY=0;exitDx=0;exitDy=0;" parent="1" source="tPjTmyyNhbe7xi5pCjgy-35" target="tPjTmyyNhbe7xi5pCjgy-15" edge="1">
          <mxGeometry relative="1" as="geometry" />
        </mxCell>
        <mxCell id="tPjTmyyNhbe7xi5pCjgy-35" value="advise &quot;shock&quot;" style="ellipse;whiteSpace=wrap;html=1;fillColor=#007FFF;" parent="1" vertex="1">
          <mxGeometry x="400" y="300" width="120" height="30" as="geometry" />
        </mxCell>
        <mxCell id="tPjTmyyNhbe7xi5pCjgy-38" style="rounded=0;orthogonalLoop=1;jettySize=auto;html=1;exitX=0.5;exitY=0;exitDx=0;exitDy=0;dashed=1;" parent="1" source="tPjTmyyNhbe7xi5pCjgy-36" target="tPjTmyyNhbe7xi5pCjgy-15" edge="1">
          <mxGeometry relative="1" as="geometry" />
        </mxCell>
        <mxCell id="l38MuskODwzm0i6knBrt-26" value="extends" style="edgeLabel;html=1;align=center;verticalAlign=middle;resizable=0;points=[];" vertex="1" connectable="0" parent="tPjTmyyNhbe7xi5pCjgy-38">
          <mxGeometry x="0.3751" y="1" relative="1" as="geometry">
            <mxPoint as="offset" />
          </mxGeometry>
        </mxCell>
        <mxCell id="tPjTmyyNhbe7xi5pCjgy-36" value="not to shock" style="ellipse;whiteSpace=wrap;html=1;fillColor=#007FFF;" parent="1" vertex="1">
          <mxGeometry x="360" y="340" width="120" height="30" as="geometry" />
        </mxCell>
        <mxCell id="l38MuskODwzm0i6knBrt-2" style="rounded=0;orthogonalLoop=1;jettySize=auto;html=1;exitX=0;exitY=0.5;exitDx=0;exitDy=0;entryX=0.5;entryY=0.5;entryDx=0;entryDy=0;entryPerimeter=0;endArrow=none;endFill=0;" edge="1" parent="1" source="tPjTmyyNhbe7xi5pCjgy-20" target="tPjTmyyNhbe7xi5pCjgy-4">
          <mxGeometry relative="1" as="geometry" />
        </mxCell>
        <mxCell id="l38MuskODwzm0i6knBrt-6" style="rounded=0;orthogonalLoop=1;jettySize=auto;html=1;exitX=1;exitY=0;exitDx=0;exitDy=0;entryX=0;entryY=1;entryDx=0;entryDy=0;entryPerimeter=0;endArrow=none;endFill=0;" edge="1" parent="1" source="l38MuskODwzm0i6knBrt-5" target="tPjTmyyNhbe7xi5pCjgy-14">
          <mxGeometry relative="1" as="geometry" />
        </mxCell>
        <mxCell id="l38MuskODwzm0i6knBrt-28" style="rounded=0;orthogonalLoop=1;jettySize=auto;html=1;exitX=0;exitY=1;exitDx=0;exitDy=0;endArrow=none;endFill=0;" edge="1" parent="1" source="l38MuskODwzm0i6knBrt-5">
          <mxGeometry relative="1" as="geometry">
            <mxPoint x="70" y="820" as="targetPoint" />
          </mxGeometry>
        </mxCell>
        <mxCell id="l38MuskODwzm0i6knBrt-5" value="detect deepth" style="ellipse;whiteSpace=wrap;html=1;fillColor=#007FFF;" vertex="1" parent="1">
          <mxGeometry x="520" y="800" width="120" height="50" as="geometry" />
        </mxCell>
        <mxCell id="l38MuskODwzm0i6knBrt-8" style="rounded=0;orthogonalLoop=1;jettySize=auto;html=1;exitX=1;exitY=0.5;exitDx=0;exitDy=0;endArrow=none;endFill=0;" edge="1" parent="1" source="l38MuskODwzm0i6knBrt-7" target="tPjTmyyNhbe7xi5pCjgy-14">
          <mxGeometry relative="1" as="geometry" />
        </mxCell>
        <mxCell id="l38MuskODwzm0i6knBrt-7" value="beep" style="ellipse;whiteSpace=wrap;html=1;fillColor=#007FFF;" vertex="1" parent="1">
          <mxGeometry x="530" y="860" width="120" height="40" as="geometry" />
        </mxCell>
        <mxCell id="l38MuskODwzm0i6knBrt-9" value="analyses" style="ellipse;whiteSpace=wrap;html=1;fillColor=#007FFF;" vertex="1" parent="1">
          <mxGeometry x="320" y="735" width="110" height="40" as="geometry" />
        </mxCell>
        <mxCell id="l38MuskODwzm0i6knBrt-10" style="rounded=0;orthogonalLoop=1;jettySize=auto;html=1;" edge="1" parent="1" source="l38MuskODwzm0i6knBrt-9" target="tPjTmyyNhbe7xi5pCjgy-18">
          <mxGeometry relative="1" as="geometry" />
        </mxCell>
        <mxCell id="l38MuskODwzm0i6knBrt-12" value="" style="shape=stencil(fZbdcgIhDIWfZm8zQAg/17Z9j85U606tdqz9e/tmZ0c0uJ47xP0I5JwEBl59bp8/1kNwn6fj4W39M76ctgM/DCGM++36OJ50NPDjwKvN4bh+PR6+9i/z74/n6ctp9H74nlb4nbmSKZeJCu5vngmZ6jzzNAO7cX8FVKEsBuBKrgKg9oAE8gkCbLeUhEoEQKSUDZDLeWYRKIl8MEDRmHwfyBrBG6Amyu4+kDxxMoB3jhwgYu7TVAsVkFcWCs4CTBEoF4RctKeOxHIf8IXYpikHikAIf+MNUW94AGSSaoAoFIE3AlOyeWU+p2E5S9yfQZcQILVuQOwZdJNoS9Ls3wA5u2XZTIHECqeJ9kDpSaauRiNVcAY1QhdBzeLBli5WazpkSsBLV25uRaqWRyFawTQzRRIQYirJzq5atkBqLfouwqUxLBepthWb10vrWZY6UOAeyKCCtDV625mm9gmUC4Wc3VLJMMIE1BsA2FW9JraVlQB7n3c9oMKhCLEvIM1zBPZ25/umNQ1tVEC2G+fFCC8g398O2hNQuQlVu752DBfA+q0ptnqO5JFmeuIuo9DY7KjY71UxdJV4EntifPWorW++R/dC4t7V3DlIB5cHx2bc7eb3yvX//QNFp+bHDT/+Aw==);lineShape=1;" vertex="1" parent="1">
          <mxGeometry x="870.9644009360843" y="632.4170138427992" width="5.191710857905794" height="5.183595795952493" as="geometry" />
        </mxCell>
        <mxCell id="l38MuskODwzm0i6knBrt-16" style="rounded=0;orthogonalLoop=1;jettySize=auto;html=1;" edge="1" parent="1" source="l38MuskODwzm0i6knBrt-15" target="tPjTmyyNhbe7xi5pCjgy-15">
          <mxGeometry relative="1" as="geometry" />
        </mxCell>
        <mxCell id="l38MuskODwzm0i6knBrt-15" value="start CPR" style="ellipse;whiteSpace=wrap;html=1;fillColor=#007FFF;" vertex="1" parent="1">
          <mxGeometry x="310" y="480" width="120" height="30" as="geometry" />
        </mxCell>
        <mxCell id="l38MuskODwzm0i6knBrt-18" style="rounded=0;orthogonalLoop=1;jettySize=auto;html=1;entryX=0;entryY=1;entryDx=0;entryDy=0;" edge="1" parent="1" source="l38MuskODwzm0i6knBrt-17" target="tPjTmyyNhbe7xi5pCjgy-15">
          <mxGeometry relative="1" as="geometry" />
        </mxCell>
        <mxCell id="l38MuskODwzm0i6knBrt-17" value="continue CPR" style="ellipse;whiteSpace=wrap;html=1;fillColor=#007FFF;" vertex="1" parent="1">
          <mxGeometry x="315" y="520" width="120" height="40" as="geometry" />
        </mxCell>
        <mxCell id="l38MuskODwzm0i6knBrt-21" style="rounded=0;orthogonalLoop=1;jettySize=auto;html=1;entryX=0;entryY=1;entryDx=0;entryDy=0;dashed=1;" edge="1" parent="1" source="l38MuskODwzm0i6knBrt-20" target="tPjTmyyNhbe7xi5pCjgy-15">
          <mxGeometry relative="1" as="geometry" />
        </mxCell>
        <mxCell id="l38MuskODwzm0i6knBrt-25" value="extends" style="edgeLabel;html=1;align=center;verticalAlign=middle;resizable=0;points=[];" vertex="1" connectable="0" parent="l38MuskODwzm0i6knBrt-21">
          <mxGeometry x="-0.1817" y="2" relative="1" as="geometry">
            <mxPoint as="offset" />
          </mxGeometry>
        </mxCell>
        <mxCell id="l38MuskODwzm0i6knBrt-20" value="press deeper" style="ellipse;whiteSpace=wrap;html=1;fillColor=#007FFF;" vertex="1" parent="1">
          <mxGeometry x="354" y="565" width="120" height="40" as="geometry" />
        </mxCell>
        <mxCell id="l38MuskODwzm0i6knBrt-24" style="rounded=0;orthogonalLoop=1;jettySize=auto;html=1;" edge="1" parent="1" source="l38MuskODwzm0i6knBrt-23" target="tPjTmyyNhbe7xi5pCjgy-15">
          <mxGeometry relative="1" as="geometry" />
        </mxCell>
        <mxCell id="l38MuskODwzm0i6knBrt-23" value="good press" style="ellipse;whiteSpace=wrap;html=1;fillColor=#007FFF;" vertex="1" parent="1">
          <mxGeometry x="420" y="615.01" width="120" height="40" as="geometry" />
        </mxCell>
        <mxCell id="l38MuskODwzm0i6knBrt-30" value="&lt;font style=&quot;font-size: 22px;&quot;&gt;AED&lt;/font&gt;" style="text;html=1;align=center;verticalAlign=middle;resizable=0;points=[];autosize=1;strokeColor=none;fillColor=none;" vertex="1" parent="1">
          <mxGeometry x="370" y="20" width="70" height="40" as="geometry" />
        </mxCell>
        <mxCell id="l38MuskODwzm0i6knBrt-32" style="rounded=0;orthogonalLoop=1;jettySize=auto;html=1;" edge="1" parent="1" source="l38MuskODwzm0i6knBrt-31" target="tPjTmyyNhbe7xi5pCjgy-18">
          <mxGeometry relative="1" as="geometry" />
        </mxCell>
        <mxCell id="l38MuskODwzm0i6knBrt-31" value="show rhythm" style="ellipse;whiteSpace=wrap;html=1;fillColor=#007FFF;" vertex="1" parent="1">
          <mxGeometry x="330" y="680" width="110" height="40" as="geometry" />
        </mxCell>
        <mxCell id="l38MuskODwzm0i6knBrt-34" style="rounded=0;orthogonalLoop=1;jettySize=auto;html=1;" edge="1" parent="1" source="l38MuskODwzm0i6knBrt-33" target="tPjTmyyNhbe7xi5pCjgy-15">
          <mxGeometry relative="1" as="geometry" />
        </mxCell>
        <mxCell id="l38MuskODwzm0i6knBrt-33" value="shock in 3,2,1" style="ellipse;whiteSpace=wrap;html=1;fillColor=#007FFF;" vertex="1" parent="1">
          <mxGeometry x="315" y="387.5" width="120" height="35" as="geometry" />
        </mxCell>
        <mxCell id="l38MuskODwzm0i6knBrt-39" style="rounded=0;orthogonalLoop=1;jettySize=auto;html=1;" edge="1" parent="1" source="l38MuskODwzm0i6knBrt-35" target="tPjTmyyNhbe7xi5pCjgy-15">
          <mxGeometry relative="1" as="geometry" />
        </mxCell>
        <mxCell id="l38MuskODwzm0i6knBrt-35" value="anaylizing" style="ellipse;whiteSpace=wrap;html=1;fillColor=#007FFF;" vertex="1" parent="1">
          <mxGeometry x="310" y="430" width="110" height="30" as="geometry" />
        </mxCell>
        <mxCell id="l38MuskODwzm0i6knBrt-44" style="rounded=0;orthogonalLoop=1;jettySize=auto;html=1;" edge="1" parent="1" source="l38MuskODwzm0i6knBrt-43" target="tPjTmyyNhbe7xi5pCjgy-15">
          <mxGeometry relative="1" as="geometry" />
        </mxCell>
        <mxCell id="l38MuskODwzm0i6knBrt-43" value="place pad" style="ellipse;whiteSpace=wrap;html=1;fillColor=#007FFF;" vertex="1" parent="1">
          <mxGeometry x="510" y="280" width="120" height="30" as="geometry" />
        </mxCell>
        <mxCell id="l38MuskODwzm0i6knBrt-46" style="rounded=0;orthogonalLoop=1;jettySize=auto;html=1;dashed=1;dashPattern=8 8;" edge="1" parent="1" source="l38MuskODwzm0i6knBrt-45" target="tPjTmyyNhbe7xi5pCjgy-9">
          <mxGeometry relative="1" as="geometry" />
        </mxCell>
        <mxCell id="l38MuskODwzm0i6knBrt-47" value="extends" style="edgeLabel;html=1;align=center;verticalAlign=middle;resizable=0;points=[];" vertex="1" connectable="0" parent="l38MuskODwzm0i6knBrt-46">
          <mxGeometry x="-0.0977" y="-1" relative="1" as="geometry">
            <mxPoint as="offset" />
          </mxGeometry>
        </mxCell>
        <mxCell id="l38MuskODwzm0i6knBrt-45" value="shave" style="ellipse;whiteSpace=wrap;html=1;fillColor=#007FFF;" vertex="1" parent="1">
          <mxGeometry x="370" y="150" width="90" height="50" as="geometry" />
        </mxCell>
        <mxCell id="l38MuskODwzm0i6knBrt-49" style="rounded=0;orthogonalLoop=1;jettySize=auto;html=1;" edge="1" parent="1" source="l38MuskODwzm0i6knBrt-48" target="tPjTmyyNhbe7xi5pCjgy-15">
          <mxGeometry relative="1" as="geometry" />
        </mxCell>
        <mxCell id="l38MuskODwzm0i6knBrt-48" value="UNIT OK" style="ellipse;whiteSpace=wrap;html=1;fillColor=#007FFF;" vertex="1" parent="1">
          <mxGeometry x="620" y="310" width="70" height="20" as="geometry" />
        </mxCell>
        <mxCell id="l38MuskODwzm0i6knBrt-53" style="rounded=0;orthogonalLoop=1;jettySize=auto;html=1;dashed=1;" edge="1" parent="1" source="l38MuskODwzm0i6knBrt-50" target="tPjTmyyNhbe7xi5pCjgy-15">
          <mxGeometry relative="1" as="geometry" />
        </mxCell>
        <mxCell id="l38MuskODwzm0i6knBrt-50" value="UNIT FAIL" style="ellipse;whiteSpace=wrap;html=1;fillColor=#007FFF;" vertex="1" parent="1">
          <mxGeometry x="620" y="435" width="70" height="20" as="geometry" />
        </mxCell>
        <mxCell id="l38MuskODwzm0i6knBrt-52" style="rounded=0;orthogonalLoop=1;jettySize=auto;html=1;dashed=1;" edge="1" parent="1" source="l38MuskODwzm0i6knBrt-51" target="tPjTmyyNhbe7xi5pCjgy-15">
          <mxGeometry relative="1" as="geometry" />
        </mxCell>
        <mxCell id="l38MuskODwzm0i6knBrt-51" value="LOW BETTRY" style="ellipse;whiteSpace=wrap;html=1;fillColor=#007FFF;" vertex="1" parent="1">
          <mxGeometry x="590" y="480" width="70" height="40" as="geometry" />
        </mxCell>
      </root>
    </mxGraphModel>
  </diagram>
</mxfile>
